HIERARCHY
ROOT Hips
{
	OFFSET 0.00000 0.00000 0.00000
	CHANNELS 6 Xposition Yposition Zposition Zrotation Yrotation Xrotation 
	JOINT LHipJoint
	{
		OFFSET 0 0 0
		CHANNELS 3 Zrotation Yrotation Xrotation
		JOINT LeftHip
		{
			OFFSET 3.13874 -1.57224 1.49786
			CHANNELS 3 Zrotation Yrotation Xrotation
			JOINT LeftKnee
			{
				OFFSET 2.10955 -5.79594 0.00000
				CHANNELS 3 Zrotation Yrotation Xrotation
				JOINT LeftAnkle
				{
					OFFSET 2.41843 -6.64458 0.00000
					CHANNELS 3 Zrotation Yrotation Xrotation
					JOINT LeftToe
					{
						OFFSET 0.04713 -0.12948 1.66229
						CHANNELS 3 Zrotation Yrotation Xrotation
						End Site
						{
							OFFSET 0.00000 -0.00000 0.85167
						}
					}
				}
			}
		}
	}
	JOINT RHipJoint
	{
		OFFSET 0 0 0
		CHANNELS 3 Zrotation Yrotation Xrotation
		JOINT RightHip
		{
			OFFSET -3.13988 -1.57224 1.49786
			CHANNELS 3 Zrotation Yrotation Xrotation
			JOINT RightKnee
			{
				OFFSET -2.15006 -5.90725 0.00000
				CHANNELS 3 Zrotation Yrotation Xrotation
				JOINT RightAnkle
				{
					OFFSET -2.34496 -6.44273 0.00000
					CHANNELS 3 Zrotation Yrotation Xrotation
					JOINT RightToe
					{
						OFFSET -0.08699 -0.23900 1.55223
						CHANNELS 3 Zrotation Yrotation Xrotation
						End Site
						{
							OFFSET -0.00000 -0.00000 0.80281
						}
					}
				}
			}
		}
	}
	JOINT lowerback
	{
		OFFSET 0 0 0
		CHANNELS 3 Zrotation Yrotation Xrotation
		JOINT Chest
		{
			OFFSET 0.01292 1.96517 -0.16495
			CHANNELS 3 Zrotation Yrotation Xrotation
			JOINT Chest2
			{
				OFFSET 0.02122 1.88666 0.19706
				CHANNELS 3 Zrotation Yrotation Xrotation
				JOINT lowerneck
				{
					OFFSET 0 0 0
					CHANNELS 3 Zrotation Yrotation Xrotation
					JOINT Neck
					{
						OFFSET -0.01683 1.81591 0.07903
						CHANNELS 3 Zrotation Yrotation Xrotation
						JOINT Head
						{
							OFFSET 0.00815 1.74013 -0.47700
							CHANNELS 3 Zrotation Yrotation Xrotation
							End Site
							{
								OFFSET -0.00204 1.83225 -0.16933
							}
						}
					}
				}
				JOINT LeftCollar
				{
					OFFSET 0 0 0
					CHANNELS 3 Zrotation Yrotation Xrotation
					JOINT LeftShoulder
					{
						OFFSET 3.38482 1.41533 0.19802
CHANNELS 3 Zrotation Xrotation Yrotation
						JOINT LeftElbow
						{
OFFSET 0 -4.327120 0.000000
CHANNELS 3 Zrotation Xrotation Yrotation
							JOINT LeftWrist
							{
OFFSET 0 -3.285870 -0.000000
CHANNELS 3 Zrotation Xrotation Yrotation
								JOINT lhand
								{
									OFFSET 0 0 0
CHANNELS 3 Zrotation Xrotation Yrotation
									JOINT LFingers
									{
OFFSET 0 -0.433160 -0.000000
CHANNELS 3 Zrotation Xrotation Yrotation
										End Site
										{
OFFSET 0 -0.349220 -0.000000
										}
									}
								}
								JOINT LThumb
								{
OFFSET 0 0.000000 0.000000
CHANNELS 3 Zrotation Xrotation Yrotation
									End Site
									{
OFFSET 0 -0.354560 0.354560
									}
								}
							}
						}
					}
				}
				JOINT RightCollar
				{
					OFFSET 0 0 0
					CHANNELS 3 Zrotation Yrotation Xrotation
					JOINT RightShoulder
					{
						OFFSET -3.09725 1.62858 -0.14144
CHANNELS 3 Zrotation Xrotation Yrotation
						JOINT RightElbow
						{
OFFSET 0 -4.291040 0.000000
CHANNELS 3 Zrotation Xrotation Yrotation
							JOINT RightWrist
							{
OFFSET 0 -3.227200 -0.000000
CHANNELS 3 Zrotation Xrotation Yrotation
								JOINT rhand
								{
									OFFSET 0 0 0
CHANNELS 3 Zrotation Xrotation Yrotation
									JOINT RFingers
									{
OFFSET 0 -0.543620 -0.000000
CHANNELS 3 Zrotation Xrotation Yrotation
										End Site
										{
OFFSET 0 -0.438280 -0.000000
										}
									}
								}
								JOINT RThumb
								{
OFFSET 0 0.000000 0.000000
CHANNELS 3 Zrotation Xrotation Yrotation
									End Site
									{
OFFSET 0 -0.444970 0.444970
									}
								}
							}
						}
					}
				}
			}
		}
	}
}
MOTION
Frames: 4
Frame Time: 0.008333333333333333
5.861001 14.145467 3.648443 201.253750 -57.099703 -183.325760 0.000000 0.000000 0.000000 11.970234 -28.420799 -47.863736 11.144684 18.005126 63.250557 3.509634 -11.103188 -33.911040 5.209731 -13.616004 -41.720633 0.000000 0.000000 0.000000 34.473007 20.280710 -28.169281 -8.178098 -16.248605 53.201374 -3.973941 -11.020973 -42.477952 -3.291313 11.151814 -32.794318 4.657855 2.142043 15.169069 1.082167 4.016736 -9.673611 -2.565208 1.133383 -19.771645 3.921022 2.218472 -14.996303 -6.676212 3.336399 25.064079 -2.658110 0.869938 10.715677 0.000000 0.000000 0.000000 28.010630 -1.073675 14.502318 120.346713 -56.216747 85.947202 64.311665 46.769250 -29.025944 0.000000 0.000000 0.000000 -7.125000 0.000000 0.000000 68.773064 71.661420 -49.880793 0.000000 0.000000 0.000000 -32.377487 4.668945 22.542589 -106.570703 -58.935702 -74.299298 -46.414664 1.518196 6.155160 0.000000 0.000000 0.000000 7.125000 0.000000 0.000000 -16.899361 38.336144 -2.871432
5.977936 14.086768 3.505660 208.506093 -60.183191 -189.954501 0.000000 0.000000 0.000000 15.785391 -27.078375 -51.907545 11.381291 18.116492 64.013584 3.438211 -10.475972 -33.557401 4.661475 -12.989730 -39.334130 0.000000 0.000000 0.000000 38.297862 19.218745 -27.204130 -7.845391 -16.003899 52.003174 -4.369339 -11.211670 -44.267457 -3.026172 10.736130 -31.396190 5.305185 0.823110 15.611230 2.921392 2.650093 -9.556373 -0.319734 0.616045 -20.119615 3.724866 2.411021 -15.200070 -6.735408 3.678159 24.869387 -2.593466 1.004073 10.703765 0.000000 0.000000 0.000000 26.566829 -4.884499 12.212459 120.742657 -56.108699 86.276042 64.042931 47.486204 -28.892951 0.000000 0.000000 0.000000 -7.125000 0.000000 0.000000 67.517513 71.544053 -48.617170 0.000000 0.000000 0.000000 -32.493551 9.704323 21.317769 -108.517956 -58.662406 -75.964848 -46.520312 0.878207 5.908731 0.000000 0.000000 0.000000 7.125000 0.000000 0.000000 -16.933039 38.006707 -3.019919
6.081289 14.038218 3.380269 215.540618 -62.962993 -196.629896 0.000000 0.000000 0.000000 18.547940 -26.280456 -55.703199 11.579441 18.206999 64.649260 3.365344 -9.133039 -33.235355 4.335565 -12.592861 -37.864818 0.000000 0.000000 0.000000 41.156942 17.215511 -26.822757 -7.451101 -15.699153 50.558605 -4.908810 -10.925777 -46.326550 -2.550536 9.922713 -28.732659 5.373363 -0.425968 16.190747 4.535499 1.206474 -9.402817 2.059958 0.135179 -20.439492 4.859384 2.558060 -15.574962 -8.168073 3.950438 24.960352 -3.279196 1.051111 10.886240 0.000000 0.000000 0.000000 24.929836 -8.647723 9.856216 120.756105 -56.105072 86.287284 64.175200 48.512085 -28.750694 0.000000 0.000000 0.000000 -7.125000 0.000000 0.000000 67.623345 71.430820 -48.577762 0.000000 0.000000 0.000000 -32.570489 14.476343 20.016214 -109.662321 -58.486906 -76.941445 -46.586812 0.204972 5.808927 0.000000 0.000000 0.000000 7.125000 0.000000 0.000000 -16.966972 37.875133 -3.083300
6.170417 13.998085 3.272067 221.961798 -65.432004 -203.059896 0.000000 0.000000 0.000000 20.055094 -25.863901 -58.687655 11.659259 18.242834 64.904701 3.286644 -6.913116 -33.011573 4.439350 -12.722686 -38.339849 0.000000 0.000000 0.000000 43.077600 14.404191 -26.718919 -7.021035 -15.347753 48.950701 -5.361503 -10.737990 -48.013513 -2.188375 9.242765 -26.561552 4.799149 -1.543186 17.023906 6.006987 -0.187651 -9.434278 4.332229 -0.309523 -20.600318 5.351965 2.747390 -14.951859 -8.562512 4.184407 24.161683 -3.451330 1.190992 10.508152 0.000000 0.000000 0.000000 23.233549 -12.412138 7.452865 120.356915 -56.213869 85.955689 64.291884 49.590203 -28.829445 0.000000 0.000000 0.000000 -7.125000 0.000000 0.000000 68.216978 71.499454 -49.189973 0.000000 0.000000 0.000000 -32.443481 19.150676 18.633287 -110.244908 -58.393074 -77.437986 -46.722187 -0.424311 5.815581 0.000000 0.000000 0.000000 7.125000 0.000000 0.000000 -17.085686 37.897087 -3.096872
